<svg width="720" height="720" viewBox="0 0 720 720" fill="none" xmlns="http://www.w3.org/2000/svg">
<rect width="720" height="720" rx="360" fill="#231F20"/>
<path d="M324.724 213.28C294.265 215.119 267.163 224.152 244.618 239.942C230.908 249.575 217.597 263.126 208.163 277.157C194.412 297.583 186.658 318.249 183.54 342.912C182.82 348.548 182.82 371.972 183.54 377.688C185.978 397.675 191.494 415.023 200.648 431.852C214.958 458.114 235.025 477.501 261.966 491.171C281.673 501.165 300.54 506.001 326.123 507.6C329.96 507.84 362.218 508 407.108 508C473.543 508 482.097 507.92 485.055 507.36C490.811 506.281 494.369 504.083 496.368 500.405C498.966 495.648 498.766 501.644 498.886 420.339L498.959 375.49C498.985 359.492 486.023 346.51 470.025 346.51V346.51C437.727 346.51 437.967 346.51 432.251 349.188C426.855 351.786 423.537 356.023 421.858 362.659C421.099 365.696 421.059 367.056 421.059 393.957C421.059 421.339 421.019 422.178 420.219 425.496C419.18 429.613 418.141 431.292 416.302 431.732C415.582 431.932 395.916 432.012 372.332 431.932C334.837 431.812 329.161 431.692 325.124 431.092C313.971 429.453 305.617 426.615 297.143 421.619C295.504 420.659 293.905 419.94 293.625 419.98C291.626 420.419 278.155 407.908 273.479 401.272C270.361 396.875 267.363 391.359 266.563 388.601C266.284 387.562 265.404 384.883 264.605 382.645C262.046 375.33 261.367 370.653 261.407 361.1C261.407 353.984 261.567 352.066 262.326 348.508C265.324 334.398 272.439 321.447 282.393 311.933C291.387 303.299 303.658 296.783 315.97 294.105C324.284 292.306 328.002 292.106 356.702 291.867L377.037 291.688C381.416 291.65 385.461 289.342 387.721 285.591V285.591C389.72 282.273 400.353 264.565 411.385 246.257V246.257C420.182 231.648 409.644 213.033 392.59 213.059L379.167 213.08C350.426 213.12 325.923 213.2 324.724 213.28Z" fill="#FD1A2E"/>
<path d="M432.451 252.053C419.939 273.559 409.666 291.267 409.586 291.467C409.506 291.627 428.134 291.707 451.038 291.667L468.443 291.616C483.385 291.573 497.132 283.439 504.362 270.361V270.361C514.555 251.894 534.422 216.478 536.021 213.879V213.879C536.263 213.498 535.989 213 535.538 213H495.888V213C470.671 213 447.357 226.413 434.683 248.214L432.451 252.053Z" fill="#FD1A2E"/>
</svg>
